# xmcd
#
# Track frame offsets: 
#        150
#        20706
#        35835
#        54856
#        73585
#        89810
#        106765
#        127898
#        146966
#        164110
#        183406
#
# Disc length: 2752 seconds
#
# Revision: 0
# Processed by: cddbd v1.5.2PL0 Copyright (c) Steve Scherf et al.
# Submitted via: ExactAudioCopyFreeDBPlugin 1.0
#
DISCID=a30abe0b
DTITLE=郭曉曉 - I
DYEAR=2017
DGENRE=Pop
TTITLE0=你什麼都不知道
TTITLE1=穿搭學
TTITLE2=如果我要結婚
TTITLE3=你和我
TTITLE4=不能不愛你
TTITLE5=不開心要說
TTITLE6=乘風
TTITLE7=行動咖啡車
TTITLE8=大大小小
TTITLE9=想念不孤單
TTITLE10=笑顏 (remix)
EXTD=
EXTT0=
EXTT1=
EXTT2=
EXTT3=
EXTT4=
EXTT5=
EXTT6=
EXTT7=
EXTT8=
EXTT9=
EXTT10=
PLAYORDER=
